<svg width="690" height="320"><g transform="translate(20,30)"><path class="link" style="fill: none; stroke: rgb(190, 195, 199); stroke-width: 1px;" d="M7,0L7,30L57,30"></path><path class="link" style="fill: none; stroke: rgb(190, 195, 199); stroke-width: 1px;" d="M7,0L7,60L57,60"></path><path class="link" style="fill: none; stroke: rgb(190, 195, 199); stroke-width: 1px;" d="M7,0L7,120L57,120"></path><path class="link" style="fill: none; stroke: rgb(190, 195, 199); stroke-width: 1px;" d="M7,0L7,150L57,150"></path><path class="link" style="fill: none; stroke: rgb(190, 195, 199); stroke-width: 1px;" d="M57,60L57,90L107,90"></path><path class="link" style="fill: none; stroke: rgb(190, 195, 199); stroke-width: 1px;" d="M57,150L57,180L107,180"></path><g class="node" transform="translate(0,0)" style="opacity: 1;"><rect y="-12.5" x="-5" rx="4" ry="4" height="25" width="280" style="fill: rgb(206, 224, 244); cursor: pointer;"></rect><text dy="4.5" dx="3.5" style="fill: black; pointer-events: none;">▾ </text><text dy="4.5" dx="16.5" style="font: 14px Consolas, &quot;Lucida Console&quot;, Menlo, Monaco, monospace; fill: rgb(51, 51, 51); pointer-events: none;">P</text></g><g class="node" transform="translate(50,30)" style="opacity: 1;"><rect y="-12.5" x="-5" rx="4" ry="4" height="25" width="280" style="fill: rgb(255, 222, 153); cursor: pointer;"></rect><text dy="4.5" dx="3.5" style="fill: black; pointer-events: none;"></text><text dy="4.5" dx="5.5" style="font: 14px Consolas, &quot;Lucida Console&quot;, Menlo, Monaco, monospace; fill: rgb(51, 51, 51); pointer-events: none;">#text Example:␣</text></g><g class="node" transform="translate(50,60)" style="opacity: 1;"><rect y="-12.5" x="-5" rx="4" ry="4" height="25" width="280" style="fill: rgb(206, 224, 244); cursor: pointer;"></rect><text dy="4.5" dx="3.5" style="fill: black; pointer-events: none;">▾ </text><text dy="4.5" dx="16.5" style="font: 14px Consolas, &quot;Lucida Console&quot;, Menlo, Monaco, monospace; fill: rgb(51, 51, 51); pointer-events: none;">I</text></g><g class="node" transform="translate(100,90)" style="opacity: 1;"><rect y="-12.5" x="-5" rx="4" ry="4" height="25" width="280" style="fill: rgb(255, 222, 153); cursor: pointer;"></rect><text dy="4.5" dx="3.5" style="fill: black; pointer-events: none;"></text><text dy="4.5" dx="5.5" style="font: 14px Consolas, &quot;Lucida Console&quot;, Menlo, Monaco, monospace; fill: rgb(51, 51, 51); pointer-events: none;">#text italic</text></g><g class="node" transform="translate(50,120)" style="opacity: 1;"><rect y="-12.5" x="-5" rx="4" ry="4" height="25" width="280" style="fill: rgb(255, 222, 153); cursor: pointer;"></rect><text dy="4.5" dx="3.5" style="fill: black; pointer-events: none;"></text><text dy="4.5" dx="5.5" style="font: 14px Consolas, &quot;Lucida Console&quot;, Menlo, Monaco, monospace; fill: rgb(51, 51, 51); pointer-events: none;">#text ␣and␣</text></g><g class="node" transform="translate(50,150)" style="opacity: 1;"><rect y="-12.5" x="-5" rx="4" ry="4" height="25" width="280" style="fill: rgb(206, 224, 244); cursor: pointer;"></rect><text dy="4.5" dx="3.5" style="fill: black; pointer-events: none;">▾ </text><text dy="4.5" dx="16.5" style="font: 14px Consolas, &quot;Lucida Console&quot;, Menlo, Monaco, monospace; fill: rgb(51, 51, 51); pointer-events: none;">B</text></g><g class="node" transform="translate(100,180)" style="opacity: 1;"><rect y="-12.5" x="-5" rx="4" ry="4" height="25" width="280" style="fill: rgb(255, 222, 153); cursor: pointer;"></rect><text dy="4.5" dx="3.5" style="fill: black; pointer-events: none;"></text><text dy="4.5" dx="5.5" style="font: 14px Consolas, &quot;Lucida Console&quot;, Menlo, Monaco, monospace; fill: rgb(51, 51, 51); pointer-events: none;">#text bold</text></g></g></svg>
